<?xml version="1.0" standalone="no"?>
<!DOCTYPE svg PUBLIC "-//W3C//DTD SVG 20010904//EN"
 "http://www.w3.org/TR/2001/REC-SVG-20010904/DTD/svg10.dtd">
<svg version="1.0" xmlns="http://www.w3.org/2000/svg"
 width="783.000000pt" height="783.000000pt" viewBox="0 0 783.000000 783.000000"
 preserveAspectRatio="xMidYMid meet">
<metadata>
Created by potrace 1.13, written by Peter Selinger 2001-2015
</metadata>
<g transform="translate(0.000000,783.000000) scale(0.100000,-0.100000)"
fill="#000000" stroke="none">
<path d="M6180 7819 c-412 -25 -805 -150 -1000 -316 l-38 -33 -799 0 c-451 0
-857 -5 -933 -10 -950 -73 -1700 -799 -1801 -1745 -15 -143 -6 -387 20 -535
120 -688 610 -1267 1268 -1500 187 -66 428 -110 606 -110 370 0 685 -126 933
-374 429 -429 493 -1079 156 -1590 -58 -88 -192 -229 -285 -300 -136 -103
-287 -175 -469 -223 l-103 -27 -862 -4 -862 -3 -54 44 c-232 189 -612 305
-1055 324 l-142 6 0 -711 0 -712 108 6 c463 25 823 127 1050 298 l72 55 898 4
c971 4 928 2 1161 62 334 85 655 274 902 532 280 293 450 629 520 1028 29 168
32 443 6 612 -121 782 -689 1407 -1456 1603 -127 32 -260 49 -472 59 -212 11
-330 34 -472 92 -336 139 -596 412 -715 749 -52 148 -66 238 -67 415 0 228 36
379 137 578 170 333 485 573 864 658 98 22 111 23 959 26 l860 4 80 -61 c240
-181 602 -289 1032 -307 l142 -6 3 74 3 74 313 3 312 2 0 160 0 160 -315 0
-315 0 2 233 3 232 313 3 312 2 0 160 0 160 -315 0 -315 0 0 80 0 80 -32 -1
c-18 -1 -89 -5 -158 -10z"/>
</g>
</svg>
